<svg width="1200" height="630" viewBox="0 0 1200 630" fill="none" xmlns="http://www.w3.org/2000/svg">
  <!-- Composer OG Image / Social Sharing - 1200x630 -->
  
  <!-- Background - cream/off-white like the app -->
  <rect width="1200" height="630" fill="#FAF9F7"/>
  
  <!-- Centered lockup -->
  <g transform="translate(600, 315)">
    <!-- Mark -->
    <g transform="translate(-250, -40) scale(1.2)">
      <!-- Connecting path -->
      <path d="M30 65 Q100 15, 170 60" stroke="#722F37" stroke-width="4" stroke-linecap="round" fill="none"/>
      
      <!-- Pin 1 -->
      <path d="M30 25 C18 25, 12 35, 12 47 C12 63, 30 80, 30 80 C30 80, 48 63, 48 47 C48 35, 42 25, 30 25 Z" fill="#722F37" fill-opacity="0.45"/>
      <circle cx="30" cy="45" r="7" fill="white"/>
      
      <!-- Pin 2 (Main) -->
      <path d="M100 5 C82 5, 74 19, 74 35 C74 57, 100 80, 100 80 C100 80, 126 57, 126 35 C126 19, 118 5, 100 5 Z" fill="#722F37"/>
      <path d="M88 25 L100 40 L112 25" stroke="white" stroke-width="4" stroke-linecap="round" stroke-linejoin="round" fill="none"/>
      <line x1="100" y1="40" x2="100" y2="55" stroke="white" stroke-width="4"/>
      <line x1="92" y1="55" x2="108" y2="55" stroke="white" stroke-width="4" stroke-linecap="round"/>
      
      <!-- Pin 3 -->
      <path d="M170 20 C158 20, 152 30, 152 42 C152 58, 170 75, 170 75 C170 75, 188 58, 188 42 C188 30, 182 20, 170 20 Z" fill="#722F37" fill-opacity="0.45"/>
      <circle cx="170" cy="40" r="7" fill="white"/>
    </g>
    
    <!-- Wordmark -->
    <text x="0" y="70" fill="#722F37" font-family="Georgia, 'Times New Roman', serif" font-size="56" font-weight="400" letter-spacing="6" text-anchor="middle">COMPOSER</text>
    
    <!-- Tagline -->
    <text x="0" y="115" fill="#722F37" font-family="Georgia, 'Times New Roman', serif" font-size="20" font-weight="400" letter-spacing="2" text-anchor="middle" opacity="0.7">Curated date nights in NYC</text>
  </g>
</svg>
